<svg width="120" height="132" viewBox="0 0 120 132" fill="none" xmlns="http://www.w3.org/2000/svg">
<path d="M5.64754 97.1439L4.29932 97.8014L5.64754 97.1439ZM118.976 119.313C119.442 118.629 119.266 117.696 118.582 117.229L107.429 109.622C106.744 109.155 105.811 109.332 105.344 110.016C104.877 110.701 105.054 111.634 105.738 112.101L115.652 118.862L108.891 128.776C108.424 129.46 108.6 130.394 109.285 130.86C109.969 131.327 110.902 131.151 111.369 130.466L118.976 119.313ZM37.6445 1C36.4661 0.0719497 36.4657 0.0724371 36.4651 0.0731599C36.4647 0.0737152 36.4639 0.0746743 36.4631 0.0757839C36.4613 0.0780037 36.4588 0.0811633 36.4556 0.0852575C36.4492 0.0934458 36.4399 0.105373 36.4276 0.120995C36.4032 0.152239 36.3673 0.198267 36.3204 0.258737C36.2265 0.379675 36.0885 0.55839 35.9098 0.792149C35.5524 1.25965 35.0324 1.94741 34.3775 2.83356C33.068 4.60569 31.2187 7.1722 29.0532 10.3581C24.7244 16.7269 19.1217 25.586 14.0404 35.5332C8.96366 45.4713 4.37875 56.5505 2.12509 67.3516C-0.125479 78.1379 -0.0847499 88.8118 4.29932 97.8014L6.99575 96.4863C3.02 88.3341 2.88045 78.4191 5.06185 67.9643C7.24017 57.5243 11.6995 46.7103 16.712 36.8979C21.7198 27.0946 27.2513 18.3459 31.5344 12.0445C33.6748 8.8954 35.5009 6.36124 36.7903 4.61648C37.4349 3.74418 37.9451 3.06942 38.2932 2.61403C38.4673 2.38634 38.6008 2.21351 38.6902 2.09827C38.7349 2.04065 38.7687 1.99743 38.7909 1.96894C38.8021 1.9547 38.8103 1.94414 38.8157 1.93731C38.8184 1.9339 38.8203 1.93142 38.8215 1.92987C38.8221 1.9291 38.8225 1.92864 38.8228 1.92826C38.823 1.92804 38.823 1.92805 37.6445 1ZM4.29932 97.8014C9.29075 108.036 19.096 114.429 30.6929 118.319C42.2964 122.212 55.8859 123.669 68.7834 123.903C81.6957 124.137 93.9975 123.147 103.064 122.1C107.6 121.577 111.331 121.038 113.931 120.63C115.231 120.426 116.249 120.255 116.943 120.134C117.29 120.074 117.557 120.026 117.737 119.993C117.827 119.977 117.896 119.964 117.942 119.956C117.966 119.951 117.983 119.948 117.996 119.946C118.002 119.945 118.006 119.944 118.01 119.943C118.011 119.943 118.013 119.943 118.013 119.942C118.014 119.942 118.015 119.942 117.736 118.468C117.458 116.994 117.458 116.994 117.457 116.994C117.457 116.994 117.456 116.995 117.455 116.995C117.452 116.995 117.449 116.996 117.443 116.997C117.433 116.999 117.417 117.002 117.395 117.006C117.352 117.014 117.287 117.026 117.201 117.042C117.027 117.073 116.769 117.119 116.429 117.178C115.75 117.297 114.749 117.465 113.466 117.667C110.9 118.069 107.21 118.602 102.72 119.12C93.736 120.157 81.575 121.134 68.8379 120.903C56.0861 120.672 42.8398 119.23 31.647 115.475C20.4476 111.718 11.4959 105.714 6.99575 96.4863L4.29932 97.8014Z" fill="#111010"/>
</svg>
