<svg width="35" height="32" viewBox="0 0 35 32" fill="none" xmlns="http://www.w3.org/2000/svg">
<g clip-path="url(#clip0_1_29)">
<path d="M15.9563 28.1755C15.9563 30.1552 14.3357 31.7604 12.3365 31.7604C10.3379 31.7604 8.71716 30.1553 8.71716 28.1755C8.71716 26.1955 10.3378 24.5903 12.3365 24.5903C14.3356 24.5903 15.9563 26.1954 15.9563 28.1755Z" fill="#111010"/>
<path d="M32.3813 28.1755C32.3813 30.1552 30.7607 31.7604 28.7616 31.7604C26.7625 31.7604 25.1422 30.1553 25.1422 28.1755C25.1422 26.1955 26.7625 24.5903 28.7616 24.5903C30.7606 24.5903 32.3813 26.1954 32.3813 28.1755Z" fill="#111010"/>
<path d="M34.8014 3.29365C34.6318 3.08617 34.3767 2.96553 34.1073 2.96553H14.591C14.0982 2.96553 13.6983 3.36154 13.6983 3.8498C13.6983 4.33801 14.0981 4.73405 14.591 4.73405H33.003L31.0798 13.6373C30.7071 14.7082 29.6951 15.4244 28.5483 15.4244L8.66802 15.4246L6.53119 3.04516C6.23723 1.34115 4.75693 0.104168 3.01164 0.104168H1.23542C0.742501 0.104168 0.342651 0.500169 0.342651 0.988427C0.342651 1.47669 0.742461 1.87269 1.23542 1.87269H3.01164C3.88424 1.87269 4.62462 2.49101 4.77154 3.34306L7.47937 19.0307C7.84699 21.1607 9.69749 22.7068 11.8792 22.7068H31.2951C31.788 22.7068 32.1879 22.3108 32.1879 21.8226C32.1879 21.3343 31.7881 20.9383 31.2951 20.9383H11.8792C10.5701 20.9383 9.45985 20.0108 9.23926 18.7325L8.97337 17.1924H28.5484C30.4843 17.1924 32.1894 15.9677 32.791 14.1453C32.8009 14.1159 32.8089 14.086 32.8155 14.0556L34.9804 4.03432C35.0368 3.77347 34.9712 3.50125 34.8016 3.29347L34.8014 3.29365Z" fill="#111010"/>
</g>
<defs>
<clipPath id="clip0_1_29">
<rect width="35" height="32" fill="white"/>
</clipPath>
</defs>
</svg>
