<svg width="160" height="18" viewBox="0 0 160 18" fill="none" xmlns="http://www.w3.org/2000/svg">
<path d="M6.41776 17.5386C5.20097 17.5386 4.1343 17.3226 3.21776 16.8906C2.30121 16.4586 1.58221 15.8426 1.06072 15.0426C0.555043 14.2426 0.294302 13.2906 0.2785 12.1866H2.93332C2.94912 13.0826 3.25726 13.8426 3.85776 14.4666C4.45825 15.0906 5.30369 15.4026 6.39406 15.4026C7.35801 15.4026 8.10859 15.1706 8.64592 14.7066C9.19896 14.2266 9.47555 13.6186 9.47555 12.8826C9.47555 12.2906 9.34118 11.8106 9.07259 11.4426C8.8197 11.0746 8.46415 10.7706 8.00592 10.5306C7.56341 10.2906 7.04986 10.0746 6.46517 9.8826C5.88047 9.6906 5.26418 9.48263 4.61628 9.2586C3.33628 8.8266 2.37232 8.26658 1.72443 7.5786C1.09232 6.8906 0.77628 5.9866 0.77628 4.8666C0.760472 3.9226 0.973805 3.0986 1.41628 2.3946C1.87455 1.6906 2.50665 1.1466 3.31258 0.7626C4.1343 0.362597 5.09035 0.162598 6.18072 0.162598C7.25529 0.162598 8.19555 0.362597 9.00148 0.7626C9.82318 1.1626 10.4632 1.7226 10.9215 2.4426C11.3797 3.1466 11.6167 3.9706 11.6326 4.9146H8.97778C8.97778 4.4826 8.86711 4.0746 8.64592 3.6906C8.42466 3.2906 8.10074 2.9626 7.67407 2.7066C7.24739 2.4506 6.72591 2.3226 6.10961 2.3226C5.31949 2.3066 4.66369 2.5066 4.14221 2.9226C3.63652 3.3386 3.38369 3.9146 3.38369 4.6506C3.38369 5.3066 3.57332 5.8106 3.95258 6.1626C4.33183 6.5146 4.85332 6.8106 5.51702 7.0506C6.18072 7.2746 6.93924 7.53863 7.79259 7.8426C8.6143 8.11463 9.34911 8.4426 9.99704 8.8266C10.6449 9.2106 11.1585 9.7146 11.5378 10.3386C11.9328 10.9626 12.1304 11.7546 12.1304 12.7146C12.1304 13.5626 11.917 14.3546 11.4904 15.0906C11.0637 15.8106 10.4237 16.4026 9.57037 16.8666C8.71704 17.3146 7.66615 17.5386 6.41776 17.5386Z" fill="#111010"/>
<path d="M18.4639 17.2506V2.5146H13.5572V0.450598H25.8594V2.5146H20.9764V17.2506H18.4639Z" fill="#111010"/>
<path d="M34.4211 17.5386C33.2359 17.5386 32.1613 17.3066 31.1974 16.8426C30.2493 16.3626 29.4907 15.6346 28.9219 14.6586C28.3687 13.6826 28.0922 12.4426 28.0922 10.9386V0.450598H30.6048V10.9626C30.6048 12.4346 30.9524 13.5146 31.6478 14.2026C32.343 14.8906 33.2833 15.2346 34.4685 15.2346C35.6379 15.2346 36.5702 14.8906 37.2656 14.2026C37.9608 13.5146 38.3085 12.4346 38.3085 10.9626V0.450598H40.8211V10.9386C40.8211 12.4426 40.5287 13.6826 39.9441 14.6586C39.3752 15.6346 38.6008 16.3626 37.6211 16.8426C36.6571 17.3066 35.5904 17.5386 34.4211 17.5386Z" fill="#111010"/>
<path d="M44.0441 17.2506V0.450598H49.4248C51.3685 0.450598 52.9645 0.794596 54.213 1.4826C55.4771 2.1706 56.4095 3.1466 57.01 4.4106C57.6263 5.6586 57.9344 7.1466 57.9344 8.8746C57.9344 10.5866 57.6263 12.0746 57.01 13.3386C56.4095 14.5866 55.4771 15.5546 54.213 16.2426C52.9645 16.9146 51.3685 17.2506 49.4248 17.2506H44.0441ZM46.5567 15.0906H49.33C50.8312 15.0906 52.0164 14.8426 52.8856 14.3466C53.7704 13.8506 54.4026 13.1386 54.7818 12.2106C55.1769 11.2826 55.3744 10.1706 55.3744 8.8746C55.3744 7.5786 55.1769 6.45859 54.7818 5.5146C54.4026 4.5706 53.7704 3.8506 52.8856 3.3546C52.0164 2.8426 50.8312 2.5866 49.33 2.5866H46.5567V15.0906Z" fill="#111010"/>
<path d="M60.7107 17.2506V0.450598H63.2233V17.2506H60.7107Z" fill="#111010"/>
<path d="M74.2467 17.5386C72.6032 17.5386 71.1652 17.1706 69.9326 16.4346C68.7 15.6986 67.736 14.6826 67.0407 13.3866C66.3454 12.0746 65.9978 10.5626 65.9978 8.8506C65.9978 7.1386 66.3454 5.6346 67.0407 4.3386C67.736 3.0266 68.7 2.0026 69.9326 1.2666C71.1652 0.530598 72.6032 0.162598 74.2467 0.162598C75.8904 0.162598 77.3282 0.530598 78.5607 1.2666C79.7933 2.0026 80.7496 3.0266 81.4289 4.3386C82.1245 5.6346 82.4719 7.1386 82.4719 8.8506C82.4719 10.5626 82.1245 12.0746 81.4289 13.3866C80.7496 14.6826 79.7933 15.6986 78.5607 16.4346C77.3282 17.1706 75.8904 17.5386 74.2467 17.5386ZM74.2467 15.2586C75.3844 15.2586 76.3719 15.0026 77.2096 14.4906C78.063 13.9786 78.7267 13.2426 79.2007 12.2826C79.6748 11.3226 79.9119 10.1786 79.9119 8.8506C79.9119 7.52258 79.6748 6.3786 79.2007 5.4186C78.7267 4.4586 78.063 3.7226 77.2096 3.2106C76.3719 2.6986 75.3844 2.4426 74.2467 2.4426C73.1089 2.4426 72.1133 2.6986 71.26 3.2106C70.4067 3.7226 69.743 4.4586 69.2689 5.4186C68.8106 6.3786 68.5815 7.52258 68.5815 8.8506C68.5815 10.1786 68.8106 11.3226 69.2689 12.2826C69.743 13.2426 70.4067 13.9786 71.26 14.4906C72.1133 15.0026 73.1089 15.2586 74.2467 15.2586Z" fill="#111010"/>
<path d="M91.243 17.2506V0.450598H97.0504C98.3467 0.450598 99.4207 0.674597 100.274 1.1226C101.127 1.5546 101.76 2.1546 102.17 2.9226C102.597 3.6746 102.81 4.5306 102.81 5.4906C102.81 6.4026 102.605 7.2426 102.194 8.0106C101.799 8.76263 101.175 9.36263 100.321 9.8106C99.4682 10.2586 98.3778 10.4826 97.0504 10.4826H93.7556V17.2506H91.243ZM93.7556 8.3946H96.9319C98.117 8.3946 98.963 8.13863 99.4681 7.6266C99.9896 7.0986 100.25 6.3866 100.25 5.4906C100.25 4.5626 99.9896 3.8426 99.4681 3.3306C98.963 2.8026 98.117 2.5386 96.9319 2.5386H93.7556V8.3946Z" fill="#111010"/>
<path d="M112.95 17.5386C111.307 17.5386 109.869 17.1706 108.636 16.4346C107.404 15.6986 106.44 14.6826 105.744 13.3866C105.049 12.0746 104.701 10.5626 104.701 8.8506C104.701 7.1386 105.049 5.6346 105.744 4.3386C106.44 3.0266 107.404 2.0026 108.636 1.2666C109.869 0.530598 111.307 0.162598 112.95 0.162598C114.594 0.162598 116.032 0.530598 117.264 1.2666C118.497 2.0026 119.453 3.0266 120.133 4.3386C120.828 5.6346 121.176 7.1386 121.176 8.8506C121.176 10.5626 120.828 12.0746 120.133 13.3866C119.453 14.6826 118.497 15.6986 117.264 16.4346C116.032 17.1706 114.594 17.5386 112.95 17.5386ZM112.95 15.2586C114.088 15.2586 115.076 15.0026 115.913 14.4906C116.767 13.9786 117.43 13.2426 117.904 12.2826C118.379 11.3226 118.616 10.1786 118.616 8.8506C118.616 7.52258 118.379 6.3786 117.904 5.4186C117.43 4.4586 116.767 3.7226 115.913 3.2106C115.076 2.6986 114.088 2.4426 112.95 2.4426C111.813 2.4426 110.817 2.6986 109.964 3.2106C109.11 3.7226 108.447 4.4586 107.973 5.4186C107.514 6.3786 107.285 7.52258 107.285 8.8506C107.285 10.1786 107.514 11.3226 107.973 12.2826C108.447 13.2426 109.11 13.9786 109.964 14.4906C110.817 15.0026 111.813 15.2586 112.95 15.2586Z" fill="#111010"/>
<path d="M123.975 17.2506V0.450598H126.487V15.2346H134.025V17.2506H123.975Z" fill="#111010"/>
<path d="M136.729 17.2506V0.450598H139.241V15.2346H146.779V17.2506H136.729Z" fill="#111010"/>
<path d="M151.342 17.2506V11.0586L145.843 0.450598H148.687L152.599 8.5626L156.486 0.450598H159.307L153.855 11.0586V17.2506H151.342Z" fill="#111010"/>
</svg>
